<?xml version="1.0" encoding="utf-8"?>
<!-- Designed by Vexels.com - 2019 All Rights Reserved - https://vexels.com/terms-and-conditions/  -->
<svg version="1.1" id="Layer_1" xmlns="http://www.w3.org/2000/svg" xmlns:xlink="http://www.w3.org/1999/xlink" x="0px" y="0px"
	 viewBox="0 0 1200 1200" enable-background="new 0 0 1200 1200" xml:space="preserve">
<g>
	<g>
		<g>
			<path fill="#A2C63E" d="M644.345,776.32c-1.026-7.583-4.931-13.093-13.336-13.51c-8.407-0.418-24.482-0.014-31.033-0.092
				c-6.551-0.078,2.74-0.078-3.811,0c-6.551,0.078-22.624-0.326-31.031,0.092c-8.407,0.418-12.314,5.924-13.338,13.51
				c9.292,87.116,9.116,172.172,0,259.299c1.026,7.586,4.931,13.093,13.34,13.51c8.407,0.418,24.476,0.014,31.03,0.092
				c6.552,0.078-2.741,0.078,3.811,0c6.554-0.078,22.624,0.326,31.033-0.092c8.409-0.418,12.308-5.927,13.338-13.51
				C635.232,948.49,635.053,863.438,644.345,776.32z"/>
			<path fill="#8FAA2B" d="M644.397,776.322c-1.763-7.623-4.038-13.046-13.589-13.522c-9.552-0.477-22.724,0.138-32.97-0.131
				c-0.096,95.574-0.096,191.027,0,286.601c10.249-0.27,23.414,0.345,32.97-0.131c9.555-0.477,11.822-5.899,13.589-13.522
				C635.196,948.496,635.02,863.432,644.397,776.322z"/>
		</g>
		<g>
			<path fill="#A2C63E" d="M644.345,470.256c-1.026-7.583-4.931-13.093-13.336-13.51c-8.407-0.418-24.482-0.014-31.033-0.092
				c-6.551-0.078,2.74-0.078-3.811,0c-6.551,0.078-22.624-0.326-31.031,0.092c-8.407,0.418-12.314,5.924-13.338,13.51
				c9.292,87.116,9.116,172.172,0,259.299c1.026,7.586,4.931,13.093,13.34,13.51c8.407,0.418,24.476,0.014,31.03,0.092
				c6.552,0.078-2.741,0.078,3.811,0c6.554-0.078,22.624,0.326,31.033-0.092c8.409-0.418,12.308-5.927,13.338-13.51
				C635.232,642.426,635.053,557.374,644.345,470.256z"/>
			<path fill="#8FAA2B" d="M644.397,470.259c-1.763-7.623-4.038-13.046-13.589-13.523c-9.552-0.477-22.724,0.138-32.97-0.131
				c-0.096,95.574-0.096,191.028,0,286.602c10.249-0.27,23.414,0.345,32.97-0.132c9.555-0.477,11.822-5.898,13.589-13.522
				C635.196,642.432,635.02,557.368,644.397,470.259z"/>
		</g>
		<g>
			<path fill="#A2C63E" d="M644.103,164.381c-1.029-7.585-4.931-13.092-13.338-13.51c-8.407-0.418-24.479-0.014-31.031-0.092
				c-6.551-0.078,2.74-0.078-3.811,0c-6.551,0.078-22.625-0.326-31.033,0.092c-8.406,0.418-12.309,5.925-13.338,13.51
				c9.295,87.116,9.116,172.173,0,259.299c1.029,7.585,4.929,13.093,13.338,13.51s24.479,0.014,31.033,0.092
				c6.552,0.078-2.741,0.078,3.811,0c6.554-0.078,22.621,0.326,31.031-0.092s12.308-5.926,13.34-13.51
				C634.99,336.551,634.81,251.499,644.103,164.381z"/>
			<path fill="#8FAA2B" d="M644.154,164.384c-1.764-7.624-4.034-13.045-13.587-13.522c-9.554-0.477-22.723,0.139-32.97-0.132
				c-0.096,95.574-0.096,191.027,0,286.601c10.249-0.27,23.414,0.345,32.97-0.131s11.822-5.899,13.589-13.522
				C634.959,336.556,634.778,251.494,644.154,164.384z"/>
		</g>
	</g>
	<g>
		<g>
			<g>
				<path fill="#A2C63E" d="M473.066,740.689c-0.216-6.724-6.082-10.442-12.716-9.552c-6.633,0.891-20.661,3.884-25.987,4.732
					c-5.326,0.849,2.134-0.439-3.163,0.555c-5.298,0.995-19.446,3.481-25.951,4.975s-10.975,6.771-9.496,13.089
					c16.74,71.478,20.947,144.975,21.731,218.325c0.067,6.224,5.767,10.723,12.503,10.302c6.735-0.421,21.025-2.064,26.428-2.568
					c5.403-0.503-2.17,0.284,3.213-0.323c5.384-0.607,19.773-1.702,26.407-2.707c6.634-1.005,11.141-6.253,9.701-12.58
					C478.777,890.377,475.504,816.754,473.066,740.689z"/>
				<path fill="#8FAA2B" d="M472.996,740.697c-0.226-6.723-5.484-10.51-12.84-9.536c-7.356,0.974-19.369,3.808-27.543,4.967
					c12.203,80.985,14.437,163.098,25.252,244.31c8.225-1.031,20.618-1.781,27.979-2.893c7.36-1.112,11.238-6.269,9.813-12.597
					C478.851,890.366,475.548,816.751,472.996,740.697z"/>
			</g>
			<g>
				<path fill="#A2C63E" d="M411.86,481.556c-1.157-6.597-7.557-9.812-14.13-8.363c-6.572,1.449-20.216,5.793-25.425,7.232
					c-5.21,1.439,2.079-0.687-3.091,0.902c-5.171,1.589-19.021,5.279-25.392,7.415s-9.822,7.914-7.432,14.032
					c27.035,69.211,45.812,139.147,53.38,213.263c0.642,6.289,6.374,9.913,12.977,8.917c6.603-0.996,20.596-4.08,25.896-5.05
					c5.301-0.969-2.132,0.474,3.144-0.61c5.277-1.084,19.277-3.478,25.808-5.079c6.532-1.6,10.616-7.57,8.781-13.734
					C444.753,627.842,424.947,556.192,411.86,481.556z"/>
				<path fill="#8FAA2B" d="M411.802,481.571c-1.166-6.595-6.988-9.943-14.264-8.335c-7.275,1.608-18.945,5.572-26.949,7.639
					c22.842,78.696,44.27,158.246,59.472,238.791c8.063-1.766,20.104-3.632,27.345-5.406c7.241-1.773,10.723-7.596,8.9-13.763
					C444.813,627.827,424.986,556.181,411.802,481.571z"/>
			</g>
			<g>
				<path fill="#A2C63E" d="M316.654,229.919c-1.872-6.499-8.017-8.82-14.43-6.725c-6.413,2.095-19.576,7.817-24.63,9.755
					c-5.055,1.938,1.991-0.884-2.986,1.197c-4.977,2.081-18.458,7.057-24.493,9.919c-6.034,2.862-9.272,9.049-6.306,14.996
					c33.549,67.271,63.558,132.232,80.608,205.911c1.447,6.252,7.7,9.315,14.223,7.697c6.522-1.618,20.151-5.937,25.354-7.4
					c5.203-1.463-2.093,0.679,3.082-0.904c5.174-1.583,18.94-5.258,25.338-7.448c6.398-2.19,9.686-8.612,7.038-14.537
					C368.227,372.554,337.838,303.439,316.654,229.919z"/>
				<path fill="#8FAA2B" d="M316.577,229.941c-1.885-6.495-7.419-9.009-14.539-6.685c-7.121,2.324-18.302,7.472-26.112,10.308
					c28.066,77.944,63.757,152.451,89.461,231.337c7.897-2.535,19.752-5.491,26.842-7.921c7.09-2.43,9.795-8.649,7.156-14.577
					C368.272,372.536,337.901,303.423,316.577,229.941z"/>
			</g>
		</g>
		<g>
			<g>
				<g>
					<path fill="#8FAA2B" d="M289.451,483.047c-0.143-0.041,0.037,0.024,0.026,0.02
						C289.445,483.056,289.766,483.136,289.451,483.047z"/>
					<path fill="#8FAA2B" d="M75.967,323.739c0.102,0.156,0.205,0.312,0.308,0.468c70.965,52.919,141.928,105.841,212.895,158.758
						C246.2,395.009,165.512,352.252,75.967,323.739z"/>
				</g>
				<path fill="#8FAA2B" d="M288.537,481.677c0.252,0.074,0.103,0.03,0.023,0.007C288.481,481.661,288.537,481.677,288.537,481.677z
					"/>
			</g>
			<path fill="#A2C63E" d="M75.501,323.696c0.178,0.054,0.358,0.108,0.536,0.161c70.966,52.917,141.928,105.841,212.895,158.758
				C192.372,466.53,128.373,401.383,75.501,323.696z"/>
		</g>
		<g>
			<g>
				<g>
					<path fill="#8FAA2B" d="M291.789,509.443c-0.158,0.076,0.006,0.01,0.013,0.006C291.82,509.438,291.946,509.366,291.789,509.443
						z"/>
					<path fill="#8FAA2B" d="M50.343,529.638c0.165,0.042,0.328,0.089,0.492,0.133c80.23-6.735,160.461-13.469,240.691-20.204
						C209.244,475.562,128.516,495.081,50.343,529.638z"/>
				</g>
				<path fill="#8FAA2B" d="M290.319,509.071c0.216-0.103,0.088-0.042,0.02-0.01S290.319,509.071,290.319,509.071z"/>
			</g>
			<path fill="#A2C63E" d="M50,529.889c0.153-0.071,0.308-0.143,0.462-0.214c80.231-6.735,160.461-13.469,240.692-20.204
				C215.693,556.719,132.838,550.931,50,529.889z"/>
		</g>
	</g>
	<g>
		<g>
			<g>
				<path fill="#A2C63E" d="M726.934,740.689c0.216-6.724,6.083-10.442,12.716-9.552c6.633,0.891,20.661,3.884,25.987,4.732
					c5.326,0.849-2.134-0.439,3.163,0.555c5.298,0.995,19.446,3.481,25.951,4.975c6.504,1.494,10.976,6.771,9.496,13.089
					c-16.74,71.478-20.947,144.975-21.731,218.325c-0.067,6.224-5.767,10.723-12.503,10.302c-6.735-0.421-21.025-2.064-26.428-2.568
					c-5.403-0.503,2.17,0.284-3.213-0.323c-5.384-0.607-19.773-1.702-26.407-2.707c-6.634-1.005-11.141-6.253-9.701-12.58
					C721.223,890.377,724.496,816.754,726.934,740.689z"/>
				<path fill="#8FAA2B" d="M727.004,740.697c0.226-6.723,5.484-10.51,12.84-9.536c7.356,0.974,19.369,3.808,27.543,4.967
					c-12.203,80.985-14.437,163.098-25.252,244.31c-8.225-1.031-20.618-1.781-27.979-2.893c-7.36-1.112-11.238-6.269-9.813-12.597
					C721.149,890.366,724.452,816.751,727.004,740.697z"/>
			</g>
			<g>
				<path fill="#A2C63E" d="M788.14,481.556c1.157-6.597,7.557-9.812,14.13-8.363c6.572,1.449,20.216,5.793,25.425,7.232
					s-2.079-0.687,3.091,0.902c5.171,1.589,19.021,5.279,25.392,7.415c6.371,2.136,9.822,7.914,7.432,14.032
					c-27.035,69.211-45.812,139.147-53.38,213.263c-0.642,6.289-6.374,9.913-12.977,8.917c-6.603-0.996-20.596-4.08-25.896-5.05
					c-5.301-0.969,2.132,0.474-3.144-0.61c-5.277-1.084-19.277-3.478-25.808-5.079c-6.532-1.6-10.616-7.57-8.781-13.734
					C755.247,627.842,775.053,556.192,788.14,481.556z"/>
				<path fill="#8FAA2B" d="M788.198,481.571c1.166-6.595,6.988-9.943,14.264-8.335c7.275,1.608,18.945,5.572,26.949,7.639
					c-22.842,78.696-44.27,158.246-59.472,238.791c-8.063-1.766-20.104-3.632-27.345-5.406c-7.241-1.773-10.723-7.596-8.9-13.763
					C755.187,627.827,775.014,556.181,788.198,481.571z"/>
			</g>
			<g>
				<path fill="#A2C63E" d="M883.346,229.919c1.872-6.499,8.017-8.82,14.43-6.725c6.413,2.095,19.576,7.817,24.63,9.755
					c5.055,1.938-1.991-0.884,2.986,1.197c4.977,2.081,18.458,7.057,24.493,9.919c6.034,2.862,9.272,9.049,6.306,14.996
					c-33.549,67.271-63.558,132.232-80.608,205.911c-1.447,6.252-7.7,9.315-14.223,7.697s-20.151-5.937-25.354-7.4
					c-5.203-1.463,2.093,0.679-3.082-0.904c-5.174-1.583-18.94-5.258-25.338-7.448c-6.398-2.19-9.686-8.612-7.038-14.537
					C831.773,372.554,862.162,303.439,883.346,229.919z"/>
				<path fill="#8FAA2B" d="M883.423,229.941c1.885-6.495,7.419-9.009,14.539-6.685c7.121,2.324,18.302,7.472,26.112,10.308
					c-28.066,77.944-63.757,152.451-89.461,231.337c-7.897-2.535-19.752-5.491-26.842-7.921c-7.09-2.43-9.795-8.649-7.156-14.577
					C831.728,372.536,862.099,303.423,883.423,229.941z"/>
			</g>
		</g>
		<g>
			<g>
				<g>
					<path fill="#8FAA2B" d="M910.549,483.047c0.143-0.041-0.037,0.024-0.026,0.02C910.555,483.056,910.234,483.136,910.549,483.047
						z"/>
					<path fill="#8FAA2B" d="M1124.033,323.739c-0.102,0.156-0.205,0.312-0.308,0.468
						c-70.965,52.919-141.928,105.841-212.895,158.758C953.8,395.009,1034.488,352.252,1124.033,323.739z"/>
				</g>
				<path fill="#8FAA2B" d="M911.463,481.677c-0.252,0.074-0.103,0.03-0.023,0.007C911.519,481.661,911.463,481.677,911.463,481.677
					z"/>
			</g>
			<path fill="#A2C63E" d="M1124.499,323.696c-0.178,0.054-0.358,0.108-0.536,0.161c-70.966,52.917-141.928,105.841-212.895,158.758
				C1007.628,466.53,1071.627,401.383,1124.499,323.696z"/>
		</g>
		<g>
			<g>
				<g>
					<path fill="#8FAA2B" d="M908.211,509.443c0.158,0.076-0.006,0.01-0.013,0.006C908.18,509.438,908.054,509.366,908.211,509.443z
						"/>
					<path fill="#8FAA2B" d="M1149.657,529.638c-0.165,0.042-0.328,0.089-0.492,0.133c-80.23-6.735-160.461-13.469-240.691-20.204
						C990.756,475.562,1071.484,495.081,1149.657,529.638z"/>
				</g>
				<path fill="#8FAA2B" d="M909.681,509.071c-0.216-0.103-0.088-0.042-0.02-0.01S909.681,509.071,909.681,509.071z"/>
			</g>
			<path fill="#A2C63E" d="M1150,529.889c-0.153-0.071-0.308-0.143-0.462-0.214c-80.231-6.735-160.461-13.469-240.692-20.204
				C984.307,556.719,1067.162,550.931,1150,529.889z"/>
		</g>
	</g>
</g>
</svg>
